HIERARCHY
ROOT Hips
{
	OFFSET 0.000000 87.230942 0.000000
	CHANNELS 6 Xposition Yposition Zposition Xrotation Yrotation Zrotation
	JOINT Pelvis
	{
		OFFSET 0.000000 0.000000 0.000000
		CHANNELS 3 Xrotation Yrotation Zrotation
		JOINT LeftUpLeg
		{
			OFFSET 12.017000 -9.376404 -2.439400
			CHANNELS 3 Xrotation Yrotation Zrotation
			JOINT LeftLeg
			{
				OFFSET -0.007312 -32.846973 2.110600
				CHANNELS 3 Xrotation Yrotation Zrotation
				JOINT LeftFoot
				{
					OFFSET 0.007312 -32.065170 -0.570400
					CHANNELS 3 Xrotation Yrotation Zrotation
					JOINT LeftToeBase
					{
						OFFSET 0.728300 -11.045900 13.180700
						CHANNELS 3 Xrotation Yrotation Zrotation
						End Site
						{
							OFFSET 0.000000 17.212589 0.000000
						}
					}
				}
				JOINT LeftPantLeg
				{
					OFFSET 0.002788 -16.709013 -3.143600
					CHANNELS 3 Xrotation Yrotation Zrotation
					End Site
					{
						OFFSET -0.605125 24.528742 0.000000
					}
				}
			}
			JOINT Left_Butt
			{
				OFFSET -6.630234 1.326584 -3.183700
				CHANNELS 3 Xrotation Yrotation Zrotation
				End Site
				{
					OFFSET -0.498041 20.188049 0.000000
				}
			}
		}
		JOINT RightUpLeg
		{
			OFFSET -11.717000 -9.376404 -2.439400
			CHANNELS 3 Xrotation Yrotation Zrotation
			JOINT RightLeg
			{
				OFFSET -0.003241 -32.846912 2.110600
				CHANNELS 3 Xrotation Yrotation Zrotation
				JOINT RightFoot
				{
					OFFSET 0.003241 -32.065136 -0.570500
					CHANNELS 3 Xrotation Yrotation Zrotation
					JOINT RightToeBase
					{
						OFFSET -0.728300 -11.045901 13.180700
						CHANNELS 3 Xrotation Yrotation Zrotation
						End Site
						{
							OFFSET 0.000000 17.212593 0.000000
						}
					}
				}
				JOINT RightPantLeg
				{
					OFFSET 0.008142 -16.708982 -3.143700
					CHANNELS 3 Xrotation Yrotation Zrotation
					End Site
					{
						OFFSET 0.605088 24.528715 0.000000
					}
				}
			}
			JOINT Right_Butt
			{
				OFFSET 6.630732 1.326584 -3.183700
				CHANNELS 3 Xrotation Yrotation Zrotation
				End Site
				{
					OFFSET 0.498015 20.188240 0.000000
				}
			}
		}
	}
	JOINT Spine
	{
		OFFSET -0.062400 7.848404 3.918300
		CHANNELS 3 Xrotation Yrotation Zrotation
		JOINT Spine1
		{
			OFFSET -0.072800 11.422302 0.713400
			CHANNELS 3 Xrotation Yrotation Zrotation
			JOINT Spine2
			{
				OFFSET -0.083200 13.054001 -1.931600
				CHANNELS 3 Xrotation Yrotation Zrotation
				JOINT Neck
				{
					OFFSET -0.092200 14.121796 -5.138800
					CHANNELS 3 Xrotation Yrotation Zrotation
					JOINT Head
					{
						OFFSET 0.000200 10.447403 -0.842000
						CHANNELS 3 Xrotation Yrotation Zrotation
						JOINT Visor
						{
							OFFSET 0.457100 25.671204 16.550400
							CHANNELS 3 Xrotation Yrotation Zrotation
							End Site
							{
								OFFSET 0.000000 26.061493 0.000000
							}
						}
						JOINT HairMidA
						{
							OFFSET 0.459400 31.585403 8.437400
							CHANNELS 3 Xrotation Yrotation Zrotation
							End Site
							{
								OFFSET 0.000000 26.061493 0.000000
							}
						}
						JOINT HairMidB
						{
							OFFSET 0.464000 33.309204 -8.389700
							CHANNELS 3 Xrotation Yrotation Zrotation
							End Site
							{
								OFFSET 0.000000 26.061493 0.000000
							}
						}
						JOINT HairMidC
						{
							OFFSET 0.466600 27.991196 -17.375099
							CHANNELS 3 Xrotation Yrotation Zrotation
							End Site
							{
								OFFSET 0.000000 26.061493 0.000000
							}
						}
						JOINT HairMidD
						{
							OFFSET 0.467700 17.888092 -21.169500
							CHANNELS 3 Xrotation Yrotation Zrotation
							End Site
							{
								OFFSET 0.000000 26.061493 0.000000
							}
						}
						JOINT HairMidE
						{
							OFFSET 5.325700 3.514603 -14.369699
							CHANNELS 3 Xrotation Yrotation Zrotation
							End Site
							{
								OFFSET 0.000000 26.061493 0.000000
							}
						}
						JOINT HairMidF
						{
							OFFSET -4.394100 3.514603 -14.372400
							CHANNELS 3 Xrotation Yrotation Zrotation
							End Site
							{
								OFFSET 0.000000 26.061493 0.000000
							}
						}
						JOINT HairLeftA
						{
							OFFSET 15.319900 25.746506 2.623300
							CHANNELS 3 Xrotation Yrotation Zrotation
							End Site
							{
								OFFSET 0.000000 26.061493 0.000000
							}
						}
						JOINT HairLeftB
						{
							OFFSET 12.619500 29.289398 -8.731499
							CHANNELS 3 Xrotation Yrotation Zrotation
							End Site
							{
								OFFSET 0.000000 26.061493 0.000000
							}
						}
						JOINT HairLeftC
						{
							OFFSET 15.714800 15.959900 2.909800
							CHANNELS 3 Xrotation Yrotation Zrotation
							End Site
							{
								OFFSET 0.000000 26.061493 0.000000
							}
						}
						JOINT HairLeftD
						{
							OFFSET 16.101700 18.437408 -7.553200
							CHANNELS 3 Xrotation Yrotation Zrotation
							End Site
							{
								OFFSET 0.000000 26.061493 0.000000
							}
						}
						JOINT HairLeftE
						{
							OFFSET 9.731900 17.915009 -18.316799
							CHANNELS 3 Xrotation Yrotation Zrotation
							End Site
							{
								OFFSET 0.000000 26.061493 0.000000
							}
						}
						JOINT HairLeftF
						{
							OFFSET 11.204300 4.953598 -9.668100
							CHANNELS 3 Xrotation Yrotation Zrotation
							End Site
							{
								OFFSET 0.000000 26.061493 0.000000
							}
						}
						JOINT HairRightA
						{
							OFFSET -14.397900 25.746307 2.615100
							CHANNELS 3 Xrotation Yrotation Zrotation
							End Site
							{
								OFFSET 0.000000 26.061493 0.000000
							}
						}
						JOINT HairRightB
						{
							OFFSET -11.691200 29.289200 -8.738199
							CHANNELS 3 Xrotation Yrotation Zrotation
							End Site
							{
								OFFSET 0.000000 26.061493 0.000000
							}
						}
						JOINT HairRightC
						{
							OFFSET -14.792900 15.959702 2.901400
							CHANNELS 3 Xrotation Yrotation Zrotation
							End Site
							{
								OFFSET 0.000000 26.061493 0.000000
							}
						}
						JOINT HairRightD
						{
							OFFSET -15.174000 18.437195 -7.561900
							CHANNELS 3 Xrotation Yrotation Zrotation
							End Site
							{
								OFFSET 0.000000 26.061493 0.000000
							}
						}
						JOINT HairRightE
						{
							OFFSET -8.798200 17.914902 -18.322001
							CHANNELS 3 Xrotation Yrotation Zrotation
							End Site
							{
								OFFSET 0.000000 26.061493 0.000000
							}
						}
						JOINT HairRightF
						{
							OFFSET -10.275200 4.953506 -9.674099
							CHANNELS 3 Xrotation Yrotation Zrotation
							End Site
							{
								OFFSET 0.000000 26.061493 0.000000
							}
						}
					}
				}
				JOINT LeftShoulder
				{
					OFFSET 5.133500 7.341202 -1.867600
					CHANNELS 3 Xrotation Yrotation Zrotation
					JOINT LeftArm
					{
						OFFSET 8.072663 0.936867 -2.176600
						CHANNELS 3 Xrotation Yrotation Zrotation
						JOINT LeftForeArm
						{
							OFFSET 31.271999 0.000000 0.000000
							CHANNELS 3 Xrotation Yrotation Zrotation
							JOINT LeftHand
							{
								OFFSET 31.771030 0.000000 0.000000
								CHANNELS 3 Xrotation Yrotation Zrotation
								JOINT LeftHandThumb1
								{
									OFFSET 2.886520 -2.557846 4.416640
									CHANNELS 3 Xrotation Yrotation Zrotation
									JOINT LeftHandThumb2
									{
										OFFSET 2.371025 -1.368912 1.368911
										CHANNELS 3 Xrotation Yrotation Zrotation
										JOINT LeftHandThumb3
										{
											OFFSET 2.243378 -1.295212 1.295213
											CHANNELS 3 Xrotation Yrotation Zrotation
											End Site
											{
												OFFSET -0.332611 2.876945 0.020015
											}
										}
									}
								}
								JOINT LeftHandIndex1
								{
									OFFSET 8.568985 -0.641945 3.119977
									CHANNELS 3 Xrotation Yrotation Zrotation
									JOINT LeftHandIndex2
									{
										OFFSET 3.348503 0.000000 0.000000
										CHANNELS 3 Xrotation Yrotation Zrotation
										JOINT LeftHandIndex3
										{
											OFFSET 3.314552 0.000000 0.000000
											CHANNELS 3 Xrotation Yrotation Zrotation
											End Site
											{
												OFFSET -1.032898 3.075485 0.678796
											}
										}
									}
								}
								JOINT LeftHandMiddle1
								{
									OFFSET 8.124603 0.000000 0.000000
									CHANNELS 3 Xrotation Yrotation Zrotation
									JOINT LeftHandMiddle2
									{
										OFFSET 4.166275 0.000000 0.000000
										CHANNELS 3 Xrotation Yrotation Zrotation
										JOINT LeftHandMiddle3
										{
											OFFSET 3.018135 0.000000 0.000000
											CHANNELS 3 Xrotation Yrotation Zrotation
											End Site
											{
												OFFSET -1.032700 2.767982 0.617226
											}
										}
									}
								}
								JOINT LeftHandRing1
								{
									OFFSET 8.571686 -0.031357 -2.884048
									CHANNELS 3 Xrotation Yrotation Zrotation
									JOINT LeftHandRing2
									{
										OFFSET 3.671181 0.000000 0.000000
										CHANNELS 3 Xrotation Yrotation Zrotation
										JOINT LeftHandRing3
										{
											OFFSET 2.728851 0.000000 0.000000
											CHANNELS 3 Xrotation Yrotation Zrotation
											End Site
											{
												OFFSET -0.815796 2.539223 0.577389
											}
										}
									}
								}
								JOINT LeftHandPinky1
								{
									OFFSET 7.854515 -0.675232 -5.213020
									CHANNELS 3 Xrotation Yrotation Zrotation
									JOINT LeftHandPinky2
									{
										OFFSET 3.068596 0.000000 0.000000
										CHANNELS 3 Xrotation Yrotation Zrotation
										JOINT LeftHandPinky3
										{
											OFFSET 2.396042 0.000000 0.000000
											CHANNELS 3 Xrotation Yrotation Zrotation
											End Site
											{
												OFFSET -0.524597 2.267998 0.567429
											}
										}
									}
								}
							}
							JOINT LeftSleeve
							{
								OFFSET 19.684509 -0.200119 0.476146
								CHANNELS 3 Xrotation Yrotation Zrotation
								End Site
								{
									OFFSET -0.031017 25.731133 -0.002868
								}
							}
						}
					}
				}
				JOINT RightShoulder
				{
					OFFSET -4.395900 7.341202 -1.870200
					CHANNELS 3 Xrotation Yrotation Zrotation
					JOINT RightArm
					{
						OFFSET -8.071453 0.936867 -2.181100
						CHANNELS 3 Xrotation Yrotation Zrotation
						JOINT RightForeArm
						{
							OFFSET -31.272011 0.000000 0.000000
							CHANNELS 3 Xrotation Yrotation Zrotation
							JOINT RightHand
							{
								OFFSET -31.771019 0.000000 0.000000
								CHANNELS 3 Xrotation Yrotation Zrotation
								JOINT RightHandThumb1
								{
									OFFSET -2.886520 -2.557808 4.416626
									CHANNELS 3 Xrotation Yrotation Zrotation
									JOINT RightHandThumb2
									{
										OFFSET -2.371056 -1.368927 1.368928
										CHANNELS 3 Xrotation Yrotation Zrotation
										JOINT RightHandThumb3
										{
											OFFSET -2.243362 -1.295204 1.295206
											CHANNELS 3 Xrotation Yrotation Zrotation
											End Site
											{
												OFFSET 0.332642 2.876938 0.020047
											}
										}
									}
								}
								JOINT RightHandIndex1
								{
									OFFSET -8.568993 -0.641953 3.120017
									CHANNELS 3 Xrotation Yrotation Zrotation
									JOINT RightHandIndex2
									{
										OFFSET -3.348518 0.000000 0.000000
										CHANNELS 3 Xrotation Yrotation Zrotation
										JOINT RightHandIndex3
										{
											OFFSET -3.314552 0.000000 0.000000
											CHANNELS 3 Xrotation Yrotation Zrotation
											End Site
											{
												OFFSET 1.032898 3.075478 0.678804
											}
										}
									}
								}
								JOINT RightHandMiddle1
								{
									OFFSET -8.124588 0.000000 0.000000
									CHANNELS 3 Xrotation Yrotation Zrotation
									JOINT RightHandMiddle2
									{
										OFFSET -4.166275 0.000000 0.000000
										CHANNELS 3 Xrotation Yrotation Zrotation
										JOINT RightHandMiddle3
										{
											OFFSET -3.018097 0.000000 0.000000
											CHANNELS 3 Xrotation Yrotation Zrotation
											End Site
											{
												OFFSET 1.032700 2.767937 0.617197
											}
										}
									}
								}
								JOINT RightHandRing1
								{
									OFFSET -8.571747 -0.031349 -2.884061
									CHANNELS 3 Xrotation Yrotation Zrotation
									JOINT RightHandRing2
									{
										OFFSET -3.671204 0.000000 0.000000
										CHANNELS 3 Xrotation Yrotation Zrotation
										JOINT RightHandRing3
										{
											OFFSET -2.728874 0.000000 0.000000
											CHANNELS 3 Xrotation Yrotation Zrotation
											End Site
											{
												OFFSET 0.815804 2.539261 0.577413
											}
										}
									}
								}
								JOINT RightHandPinky1
								{
									OFFSET -7.854561 -0.675247 -5.212970
									CHANNELS 3 Xrotation Yrotation Zrotation
									JOINT RightHandPinky2
									{
										OFFSET -3.068550 0.000000 0.000000
										CHANNELS 3 Xrotation Yrotation Zrotation
										JOINT RightHandPinky3
										{
											OFFSET -2.395981 0.000000 0.000000
											CHANNELS 3 Xrotation Yrotation Zrotation
											End Site
											{
												OFFSET 0.524605 2.267952 0.567413
											}
										}
									}
								}
							}
							JOINT RightSleeve
							{
								OFFSET -19.684753 -0.200165 0.476065
								CHANNELS 3 Xrotation Yrotation Zrotation
								End Site
								{
									OFFSET 0.031342 25.731255 -0.002917
								}
							}
						}
					}
				}
				JOINT Hood
				{
					OFFSET 0.369700 14.447800 -5.317800
					CHANNELS 3 Xrotation Yrotation Zrotation
					JOINT Hood1
					{
						OFFSET 0.001700 -5.553802 -5.895100
						CHANNELS 3 Xrotation Yrotation Zrotation
						JOINT Hood2
						{
							OFFSET -0.000200 -8.380501 0.763600
							CHANNELS 3 Xrotation Yrotation Zrotation
							End Site
							{
								OFFSET 0.000000 8.415215 0.000000
							}
						}
					}
				}
				JOINT Left_Breast
				{
					OFFSET 5.682500 3.120102 3.188800
					CHANNELS 3 Xrotation Yrotation Zrotation
					End Site
					{
						OFFSET 0.000000 10.528564 0.000000
					}
				}
				JOINT Right_Breast
				{
					OFFSET -4.947600 3.120102 3.185900
					CHANNELS 3 Xrotation Yrotation Zrotation
					End Site
					{
						OFFSET 0.000000 10.528564 0.000000
					}
				}
				JOINT Whistle
				{
					OFFSET 0.368200 11.471298 0.095400
					CHANNELS 3 Xrotation Yrotation Zrotation
					JOINT Whistle1
					{
						OFFSET -0.002000 -6.349899 7.479800
						CHANNELS 3 Xrotation Yrotation Zrotation
						JOINT Whistle2
						{
							OFFSET -0.001300 -8.217598 4.717600
							CHANNELS 3 Xrotation Yrotation Zrotation
							End Site
							{
								OFFSET 0.000000 9.475479 0.000000
							}
						}
					}
				}
			}
		}
		JOINT Belly
		{
			OFFSET 0.212400 1.593002 3.163700
			CHANNELS 3 Xrotation Yrotation Zrotation
			End Site
			{
				OFFSET 0.000000 7.496635 0.000000
			}
		}
	}
	JOINT FitGrandmaFacialAnim_Joint
	{
		OFFSET 1.150000 -86.211197 -1.220100
		CHANNELS 3 Xrotation Yrotation Zrotation
		End Site
		{
			OFFSET 0.000000 31.666618 0.000000
		}
	}
}
MOTION
Frames: 4
Frame Time: 0.016667
-2.483377 76.986771 0.995981 3.011896 -58.236112 6.472946 -0.000000 0.000001 -0.000000 -31.697508 10.719574 25.365311 44.298162 -9.062159 -10.058182 -14.565267 -2.375349 -8.843299 0.000000 -0.000001 -0.000000 -0.000001 0.000005 -0.000001 -0.000001 0.000001 0.000001 -29.499768 -9.422163 -26.766992 50.826655 3.527739 -7.809578 -25.429114 1.456861 21.714423 0.000000 0.000000 -0.000000 -0.000000 -0.000000 0.000002 0.000003 0.000002 -0.000001 11.191401 0.108786 -2.692029 8.434591 0.027659 -5.592313 8.457038 0.027897 -5.591863 -21.556284 25.063282 12.062620 -0.293597 25.465681 -3.208708 -0.000000 -0.000000 -0.000000 -0.000000 -0.000000 -0.000000 -0.000000 -0.000000 -0.000000 -0.000000 -0.000000 -0.000000 -0.000000 -0.000000 -0.000000 -0.000000 -0.000000 -0.000000 -0.000000 -0.000000 -0.000000 -0.000000 -0.000000 -0.000000 -0.000000 -0.000000 -0.000000 -0.000000 -0.000000 -0.000000 -0.000000 -0.000000 -0.000000 -0.000000 -0.000000 -0.000000 -0.000000 -0.000000 -0.000000 -0.000000 -0.000000 -0.000000 -0.000000 -0.000000 -0.000000 -0.000000 -0.000000 -0.000000 -0.000000 -0.000000 -0.000000 -0.000000 -0.000000 -0.000000 -0.000000 -0.000000 -0.000000 -6.221636 -11.503825 -4.023763 -23.061627 9.569267 -36.639812 0.046322 -43.170952 -0.011042 22.743627 -5.684977 15.979059 -1.064231 -7.954939 8.490075 2.373380 19.986138 -2.038312 -0.000001 -0.000000 -0.000000 13.340866 -1.006664 10.682279 -0.167567 0.303368 -31.105648 -0.000001 0.000003 -0.000001 8.495447 -0.329590 -0.915312 0.231491 0.661235 -29.901878 0.000001 -0.000000 0.000002 6.111737 3.150936 -16.210926 0.047080 0.322452 -30.125495 0.000002 0.000000 0.000001 -5.636046 7.709866 -13.878622 0.224351 0.276567 -46.588382 0.000000 -0.000001 0.000001 -0.000001 0.000003 -0.000003 -5.488235 10.658256 2.466466 -41.473885 -26.755586 30.079030 24.955752 111.862933 -23.308799 -8.702460 12.423090 -9.801928 0.264997 10.061097 -10.888506 1.383782 -17.412869 3.016263 -0.000001 -0.000000 -0.000004 19.443602 11.174441 -13.340195 -0.118670 -0.322713 18.035615 0.000001 0.000002 -0.000000 4.320464 2.436938 -4.811735 0.349136 -0.461217 26.890337 -0.000000 0.000002 0.000003 -7.005641 -10.695165 5.719819 0.111905 -0.089178 26.155873 0.000002 -0.000002 0.000001 -19.433558 -20.238235 5.987830 0.223779 -0.085768 36.844588 -0.000004 -0.000002 0.000001 -0.000001 0.000001 0.000005 -0.000000 0.000001 -0.000000 -0.000000 0.000001 -0.000000 -0.000000 0.000001 -0.000000 -0.000000 0.000001 -0.000000 -0.000000 0.000001 -0.000000 -0.000000 0.000001 -0.000002 -0.000000 -0.000003 -0.000001 -0.000000 -0.000003 -0.000001 0.000000 0.000001 -0.000000 -0.000000 0.000001 -0.000000 
-2.839491 76.997208 1.022055 4.769741 -58.847407 8.619778 0.000000 -0.000001 0.000000 -31.560276 11.020514 24.619528 43.822545 -8.194628 -9.836102 -14.733999 -2.145448 -9.376202 0.000000 0.000000 0.000000 -0.000000 0.000000 0.000001 0.000000 -0.000003 -0.000002 -30.521858 -8.546629 -27.067083 51.093404 3.594082 -7.804253 -25.595634 1.539686 21.675233 0.000000 0.000002 0.000000 0.000001 0.000003 -0.000003 0.000003 -0.000001 0.000002 10.572382 0.079418 -2.983759 7.278659 0.995588 -6.029103 7.868299 0.668174 -5.886737 -19.835341 24.498191 8.157679 -2.779486 23.606790 2.798137 -0.000000 -0.000000 0.000001 -0.000000 -0.000000 0.000001 -0.000000 -0.000000 0.000001 -0.000000 -0.000000 0.000001 -0.000000 -0.000000 0.000001 -0.000000 -0.000000 0.000001 -0.000000 -0.000000 0.000001 -0.000000 -0.000000 0.000001 -0.000000 -0.000000 0.000001 -0.000000 -0.000000 0.000001 -0.000000 -0.000000 0.000001 -0.000000 -0.000000 0.000001 -0.000000 -0.000000 0.000001 -0.000000 -0.000000 0.000001 -0.000000 -0.000000 0.000001 -0.000000 -0.000000 0.000001 -0.000000 -0.000000 0.000001 -0.000000 -0.000000 0.000001 -0.000000 -0.000000 0.000001 -6.438876 -13.164606 -4.289224 -20.844402 7.515344 -36.011353 -0.375282 -40.249031 -0.284885 20.711469 -9.083165 15.351159 -1.038640 -7.822566 8.542159 2.457016 20.247030 -1.940290 0.000000 0.000001 0.000001 13.341814 -1.007625 10.381769 -0.167199 0.303644 -31.406248 -0.000001 0.000000 -0.000001 8.490660 -0.326627 -1.215859 0.233146 0.662205 -30.202461 0.000003 0.000001 -0.000001 6.108707 3.154430 -16.511142 0.047236 0.324483 -30.426071 0.000001 0.000001 0.000001 -5.637301 7.711618 -14.177663 0.225510 0.277504 -46.888979 -0.000000 -0.000002 -0.000001 -0.000000 -0.000002 0.000005 -5.541680 9.386654 2.275661 -42.475522 -27.794003 27.164180 22.803329 114.466252 -20.890169 -4.795835 10.170863 -11.609654 0.377277 9.088730 -11.243417 1.701215 -18.294563 2.663700 -0.000002 -0.000000 -0.000000 19.445019 11.175360 -12.309057 -0.117733 -0.323592 19.070493 -0.000002 0.000000 -0.000000 4.313802 2.427124 -3.776351 0.354727 -0.464990 27.925135 0.000001 0.000003 -0.000005 -6.995284 -10.694681 6.754738 0.111822 -0.096136 27.190703 0.000002 0.000000 -0.000001 -19.413718 -20.226890 7.025154 0.227321 -0.089609 37.879369 0.000002 -0.000003 0.000001 -0.000003 0.000000 0.000001 0.000003 -0.000000 0.000001 0.000003 -0.000000 0.000001 0.000003 -0.000000 0.000001 0.000003 -0.000000 0.000001 0.000003 -0.000000 0.000001 0.000002 -0.000000 0.000001 0.000002 -0.000000 0.000001 0.000002 -0.000000 0.000001 0.000000 -0.000002 0.000001 0.000000 -0.000001 0.000000 
-3.509957 77.116959 1.113721 6.513095 -60.078965 10.678985 -0.000000 -0.000000 -0.000000 -30.589948 11.383886 24.012022 43.112571 -6.969096 -9.468871 -15.255859 -1.612274 -10.341491 -0.000000 0.000000 0.000000 -0.000000 0.000005 -0.000002 0.000003 -0.000000 0.000000 -31.084392 -7.580871 -27.015746 50.984159 3.795649 -7.730574 -25.784388 1.813643 21.500334 0.000000 0.000002 0.000000 0.000001 -0.000001 -0.000002 -0.000002 0.000000 -0.000001 9.970814 0.053207 -3.263720 5.412857 1.778452 -6.941523 6.233835 0.975653 -6.719543 -17.015553 23.940361 3.257987 -3.784286 21.629761 8.240861 0.000001 -0.000001 0.000000 0.000001 -0.000001 0.000000 0.000001 -0.000001 0.000000 0.000001 -0.000001 0.000000 0.000001 -0.000001 0.000000 0.000001 -0.000001 0.000000 0.000001 -0.000001 0.000000 0.000001 -0.000001 0.000000 0.000001 -0.000001 0.000000 0.000001 -0.000001 0.000000 0.000001 -0.000001 0.000000 0.000001 -0.000001 0.000000 0.000001 -0.000001 0.000000 0.000001 -0.000001 0.000000 0.000001 -0.000001 0.000000 0.000001 -0.000001 0.000000 0.000001 -0.000001 0.000000 0.000001 -0.000001 0.000000 0.000001 -0.000001 0.000000 -6.702463 -14.957894 -4.571848 -18.021920 7.338842 -35.052558 -0.477877 -38.363305 -0.338802 19.213300 -11.154215 13.927260 -0.979498 -7.455843 8.678456 2.699610 20.954238 -1.668316 0.000001 -0.000000 -0.000001 13.344379 -1.010278 9.557783 -0.166134 0.304205 -32.230471 0.000000 -0.000001 -0.000002 8.482579 -0.318388 -2.040052 0.237667 0.664841 -31.026711 -0.000002 -0.000000 0.000002 6.100521 3.164033 -17.334385 0.047641 0.330028 -31.250305 -0.000000 0.000000 -0.000003 -5.619237 7.707135 -15.003441 0.228755 0.280007 -47.713195 -0.000001 0.000004 0.000002 0.000001 0.000000 0.000002 -5.596368 8.117644 2.079307 -42.075342 -29.071136 25.529891 21.515750 116.635725 -19.361496 -0.202635 8.375957 -12.996908 0.500867 7.974834 -11.648246 2.059874 -19.306438 2.263681 -0.000001 0.000002 0.000001 19.446614 11.176460 -11.126339 -0.116625 -0.324520 20.255881 -0.000002 0.000001 -0.000000 4.304664 2.415562 -2.590503 0.361299 -0.469207 29.110543 0.000002 0.000000 0.000002 -6.989930 -10.702557 7.938602 0.111967 -0.104137 28.376028 0.000002 -0.000003 0.000001 -19.401439 -20.220596 8.211960 0.231367 -0.093822 39.064803 -0.000001 -0.000001 -0.000001 -0.000002 0.000001 0.000002 -0.000002 0.000002 -0.000001 -0.000002 0.000002 -0.000001 -0.000002 0.000002 -0.000001 -0.000002 0.000002 -0.000001 -0.000002 0.000002 -0.000001 -0.000002 0.000002 -0.000001 -0.000001 0.000002 -0.000001 -0.000001 0.000002 -0.000001 0.000001 0.000000 -0.000000 -0.000000 -0.000000 -0.000000 
-4.414930 77.332695 1.252895 7.677986 -61.307696 12.042434 -0.000000 0.000001 -0.000000 -29.000905 11.885402 23.666472 42.050879 -6.058464 -9.062600 -15.805643 -0.963977 -11.369021 -0.000000 -0.000000 0.000000 -0.000002 0.000000 0.000000 0.000000 0.000001 -0.000002 -30.703647 -6.778463 -26.621260 50.472376 3.682835 -7.613363 -26.106636 2.109668 21.411881 0.000000 0.000004 0.000000 0.000002 0.000001 -0.000001 -0.000000 0.000000 -0.000000 9.401609 0.026180 -3.523062 3.106746 1.642279 -8.093144 4.027170 1.010934 -7.900988 -14.200328 23.558224 -1.824857 -3.513577 20.287854 10.479021 0.000002 -0.000000 0.000000 0.000002 -0.000000 0.000000 0.000002 -0.000000 0.000000 0.000002 -0.000000 0.000000 0.000002 -0.000000 0.000000 0.000002 -0.000000 0.000000 0.000002 -0.000000 0.000000 0.000002 -0.000000 0.000000 0.000002 -0.000000 0.000000 0.000002 -0.000000 0.000000 0.000002 -0.000000 0.000000 0.000002 -0.000000 0.000000 0.000002 -0.000000 0.000000 0.000002 -0.000000 0.000000 0.000002 -0.000000 0.000000 0.000002 -0.000000 0.000000 0.000002 -0.000000 0.000000 0.000002 -0.000000 0.000000 0.000002 -0.000000 0.000000 -6.970878 -16.475501 -4.859274 -16.573505 10.147433 -34.139471 -0.206054 -37.784692 -0.168393 18.782573 -9.426707 9.926441 -0.892374 -6.907662 8.881327 3.057552 22.012764 -1.265165 0.000002 -0.000000 0.000002 13.348082 -1.014328 8.326601 -0.164574 0.305121 -33.462032 0.000001 -0.000003 -0.000002 8.470785 -0.305779 -3.271501 0.244484 0.668642 -32.258266 -0.000003 0.000002 0.000003 6.099451 3.178700 -18.565240 0.052129 0.338274 -32.481798 -0.000000 0.000003 -0.000001 -5.597895 7.702246 -16.236946 0.233573 0.283704 -48.944729 0.000001 -0.000001 -0.000000 0.000001 0.000000 0.000003 -5.673090 6.670762 1.984884 -39.956532 -30.758497 25.815269 19.616174 120.069617 -17.091328 4.611844 6.349244 -13.813232 0.623018 6.825570 -12.064235 2.424500 -20.352724 1.854924 -0.000004 0.000004 -0.000002 19.448248 11.177661 -9.904339 -0.115472 -0.325469 21.478863 0.000003 0.000002 0.000007 4.293700 2.403187 -1.367014 0.368094 -0.473358 30.333539 0.000001 0.000002 -0.000001 -6.994997 -10.712244 9.159843 0.112262 -0.112094 29.599024 0.000001 0.000002 -0.000000 -19.401344 -20.222674 9.433952 0.235621 -0.098197 40.287782 -0.000003 0.000000 -0.000000 -0.000003 -0.000000 0.000004 -0.000001 -0.000001 0.000000 -0.000001 -0.000001 0.000000 -0.000001 -0.000001 0.000000 -0.000001 -0.000001 0.000000 -0.000001 -0.000001 0.000000 -0.000001 -0.000001 0.000001 -0.000001 0.000000 -0.000000 -0.000001 0.000000 -0.000000 -0.000000 -0.000002 0.000000 -0.000000 0.000001 -0.000000 
